#!OML:ASF F:\VICON\USERDATA\INSTALL\rory3\rory3.ASF
:FULLY-SPECIFIED
:DEGREES
72
root 0.22674132746836337 17.791321826027595 31.723260705021893 -2.5330351569861227 1.434908380962372 -1.5530432088852786
lfemur 9.442417641201189 -5.106483963786133 -20.80767483952405
ltibia 41.12144534736488
lfoot 8.104658912456316 -13.818959552422454
ltoes -10.00046854956227
rfemur -24.640938080047867 4.664090527278056 24.790135380951703
rtibia 30.48471955841473
rfoot -3.9468459335751556 -3.48714696731588
rtoes 7.46761204371624
lowerback 9.427226540965426 -1.4999461832186234 -0.768487921159297
upperback 0.37027849726506096 -1.9434348457311854 2.800810819077917
thorax -4.7992583528131245 -0.9193563416685133 3.357824100220136
lowerneck -16.38244614256835 -2.443863828331663 -2.427010371061119
upperneck 20.9472703040122 -2.9775226369811456 0.5012488432181218
head 9.313015688539732 -1.5059971080457413 0.2668156258870773
lclavicle -2.1691502297302314e-15 7.082059209002334e-16
lhumerus -22.48440560507156 -2.73212282970362 83.81262133889788
lradius 30.553601803266965
lwrist 7.037383553921384
lhand -28.086356229445766 22.855560379187324
lfingers 7.12502
lthumb -1.4692547626983457 52.812971848536144
rclavicle -2.1691502297302314e-15 7.082059209002334e-16
rhumerus -34.293263433041986 -28.440136917011287 -73.18804185424499
rradius 19.81748101740964
rwrist 13.613817244831571
rhand -17.5200910997231 22.43836278868127
rfingers 7.12502
rthumb 8.733420226728105 -7.362239963316388
73
root 0.15745185679535706 17.91349183392558 32.91437472961523 -2.874524695818268 1.3115163235746143 -2.9895724391165532
lfemur 4.1745389226860805 -4.049563274049598 -17.737412000247033
ltibia 51.880051354410924
lfoot 12.867060741193068 -15.59637284119431
ltoes -5.090077980896025
rfemur -20.885971794163844 5.054477470723606 27.35293417065464
rtibia 31.204986207357106
rfoot -5.131553853476957 -3.830107587570108
rtoes 9.852972234348462
lowerback 9.558980032757724 -1.2668247897373295 0.6924830426995616
upperback 0.4428600946039077 -1.4618958789496772 3.1206663185324537
thorax -4.825340688885327 -0.7083392123252235 2.9545072572472932
lowerneck -16.166826133745168 -2.495292354601449 -2.378989539081983
upperneck 20.98647035844108 -3.0678504542250624 0.6550773275203667
head 9.290313471875029 -1.5407815467524792 0.2984542282557211
lclavicle -1.682524604249207e-15 1.1562543185020036e-15
lhumerus -23.76132707506171 -2.44321209607142 84.37807350073584
lradius 29.886979059031543
lwrist 6.2054911002323845
lhand -27.426411389682595 23.13042682659164
lfingers 7.12502
lthumb -0.8319184068493203 53.09404969069887
rclavicle -1.682524604249207e-15 1.1562543185020036e-15
rhumerus -33.66773730124523 -27.3027044369297 -73.85364825988216
rradius 20.122250093343837
rwrist 13.046052692723109
rhand -17.187213133027225 22.95203104193062
rfingers 7.12502
rthumb 9.054653039481712 -6.837025979482102
74
root 0.08878164738215794 18.005817687214478 32.61563287395461 -3.1798876627678934 0.7954989455931991 -4.201944182721473
lfemur -2.130322056673302 -2.7318951665012015 -15.6863890634997
ltibia 60.05585897619397
lfoot 13.041987082321597 -15.384709844468869
ltoes -1.5558665202135864
rfemur -17.633282171420813 5.453457452075736 29.022207414059658
rtibia 29.795820859270957
rfoot -7.629019610399409 -4.699235000895671
rtoes 10.29442143103657
lowerback 9.647051776229915 -0.9668113258904029 1.6139978775675679
upperback 0.5160875894565968 -0.9536892022173658 3.1740503017109267
thorax -4.857324323311529 -0.47547814652620546 2.353147893612188
lowerneck -16.049086505088543 -2.5935402886987364 -2.3356433450881227
upperneck 21.02286146724549 -3.239562178279026 0.842546144748266
head 9.290681389150912 -1.6037511067893224 0.3156094748837598
lclavicle -2.1342166624702288e-15 7.397897086277089e-16
lhumerus -25.065556634296087 -2.650916189478515 84.74834952668908
lradius 28.82906526483608
lwrist 4.9460961687158775
lhand -26.97085786864855 23.264062317489717
lfingers 7.12502
lthumb -0.3919538966242492 53.233872158705445
rclavicle -2.1342166624702284e-15 7.397897086277089e-16
rhumerus -32.835385647433945 -25.790633172864442 -75.2320219750449
rradius 20.48738215382382
rwrist 11.829009441823192
rhand -16.916606360603456 23.474583703466124
rfingers 7.12502
rthumb 9.315810901175928 -6.302179445903109
75
root 0.05029250962990639 18.07262954413969 32.08599168150205 -3.419727726021467 0.16336813599682687 -4.953848245031169
lfemur -8.239371138065229 -1.1256385664435118 -14.574250503782125
ltibia 65.82611306079971
lfoot 9.051679437668746 -12.836538217297528
ltoes -1.2764649499617096
rfemur -14.524792114605795 5.6677172050862765 30.22015591825547
rtibia 28.88205611718601
rfoot -10.049648861515923 -5.27525073176785
rtoes 9.548418457629055
lowerback 9.693895383552805 -0.5554199153874612 2.3309164422891366
upperback 0.5850665893968496 -0.32790360005362373 3.0434574345566947
thorax -4.86369361752027 -0.1832080673348293 1.6836423958660287
lowerneck -15.866818915624041 -2.704453880050607 -2.3394067207069558
upperneck 21.023663566741508 -3.4312746360563295 1.1044726223941628
head 9.27576480316448 -1.6734156605673172 0.3548775608239255
lclavicle -2.4902987421425435e-15 4.124350437586072e-16
lhumerus -26.35837952703825 -2.4622264316808025 84.88803549449976
lradius 27.82353420524105
lwrist 3.8699928644616843
lhand -26.545448329947575 23.69973315916174
lfingers 7.12502
lthumb 0.01887157573306053 53.67071437170688
rclavicle -2.4902987421425435e-15 4.124350437586072e-16
rhumerus -31.757224389634438 -23.976364583595103 -76.73529323060102
rradius 21.001869481707963
rwrist 10.532942786479536
rhand -16.791427640864516 23.64684838689009
rfingers 7.12502
rthumb 9.436604935334165 -6.123215437417186
76
root 0.06127623878469485 18.117503062078313 33.960718224737285 -3.418295206738862 -0.3728280093720453 -5.15348560500831
lfemur -12.170481642779933 0.513271764349883 -13.311583739605373
ltibia 70.09360670001428
lfoot 3.534093384420017 -8.830742187517584
ltoes -3.0868775935439614
rfemur -10.40516984305358 6.062200922158388 31.80729829425021
rtibia 29.932535816350388
rfoot -11.209878139472261 -5.275954064968395
rtoes 9.2666379158519
lowerback 9.721256536721953 0.0794043799265911 3.3893315888676696
upperback 0.6857035146126031 0.6107196892969803 2.9358665368278847
thorax -4.77307859339722 0.2580018104401253 1.2227759080999847
lowerneck -15.7072766031208 -2.7594137366583715 -2.284493939813177
upperneck 21.06384646585475 -3.5281896009648595 1.3691346687425714
head 9.289157775070693 -1.7074628004202608 0.4168262847200169
lclavicle -1.1079461294013036e-15 1.6853697752313489e-15
lhumerus -27.085177044910314 -1.4727425300069725 85.00709505979485
lradius 27.386588055995016
lwrist 3.813563340023822
lhand -26.833186576761406 23.408131301562477
lfingers 7.12502
lthumb -0.25897582642967576 53.384628049771
rclavicle -1.1079461294013036e-15 1.6853697752313489e-15
rhumerus -30.218745878357804 -21.248819126888225 -77.95742160221093
rradius 22.03100391702585
rwrist 9.58207040879658
rhand -16.75094190341987 22.731166843983388
rfingers 7.12502
rthumb 9.475681425568105 -7.036951178029549
77
root 0.05528505022965308 18.105294282782204 33.050704604575934 -3.3747398828688286 -1.4902540887455855 -5.665052593987049
lfemur -17.35553793340815 1.611730676278611 -13.390199103996707
ltibia 68.82560036148485
lfoot -2.1260048585223976 -5.638176977110644
ltoes -4.51705734111137
rfemur -8.386926989438418 5.99997992068816 32.306492557661485
rtibia 28.992881858141992
rfoot -13.803946747488963 -5.55191822260625
rtoes 8.50001208818269
lowerback 9.704636600652657 0.57377944345546 3.918716791833848
upperback 0.6895458375050729 1.32031377866206 2.6466638182724
thorax -4.7812607329781045 0.594783471609646 0.4030496056574967
lowerneck -15.760347207515068 -2.8080428961568535 -2.2330088774332326
upperneck 20.9984572162787 -3.608131669364081 1.3501216226079376
head 9.272601748033575 -1.737591489045493 0.3809457288238457
lclavicle -1.8411711396807193e-15 1.0099248172923367e-15
lhumerus -28.62266675179857 -0.8785378566221131 84.86161290385073
lradius 26.618290053965286
lwrist 3.960703160958706
lhand -27.402577274946744 22.457237213789277
lfingers 7.12502
lthumb -0.8088351178970006 52.43882275306504
rclavicle -1.8411711396807193e-15 1.0099248172923367e-15
rhumerus -29.052540913819573 -18.78255776833808 -79.48745173559516
rradius 23.035896732483266
rwrist 7.835609773884191
rhand -16.976479795686725 21.65896752631086
rfingers 7.12502
rthumb 9.258054904740536 -8.114326189885658
